<?xml version="1.0"?><svg viewBox="0 0 96 96" xmlns="http://www.w3.org/2000/svg"><title/><g><path d="M78,60a5.9966,5.9966,0,0,0-6,6V84H12V24H30a6,6,0,0,0,0-12H6a5.9966,5.9966,0,0,0-6,6V90a5.9966,5.9966,0,0,0,6,6H78a5.9966,5.9966,0,0,0,6-6V66A5.9966,5.9966,0,0,0,78,60Z"/><path d="M94.2422,13.7578l-12-12a5.9979,5.9979,0,0,0-8.4844,0l-36,36A5.9958,5.9958,0,0,0,36,42V54a5.9966,5.9966,0,0,0,6,6H54a5.9956,5.9956,0,0,0,4.2422-1.7578l36-36A5.9979,5.9979,0,0,0,94.2422,13.7578ZM51.5156,48H48V44.4844l30-30L81.5156,18Z"/></g></svg>